<?xml version="1.0" encoding="UTF-8" standalone="no"?>
<svg
   id="logo-27"
   width="30"
   height="29.999985"
   viewBox="0 0 30 29.999985"
   fill="none"
   version="1.1"
   sodipodi:docname="logoipsum-237.svg"
   xmlns:inkscape="http://www.inkscape.org/namespaces/inkscape"
   xmlns:sodipodi="http://sodipodi.sourceforge.net/DTD/sodipodi-0.dtd"
   xmlns="http://www.w3.org/2000/svg"
   xmlns:svg="http://www.w3.org/2000/svg">
  <defs
     id="defs12" />
  <sodipodi:namedview
     id="namedview12"
     pagecolor="#ffffff"
     bordercolor="#000000"
     borderopacity="0.25"
     inkscape:showpageshadow="2"
     inkscape:pageopacity="0.0"
     inkscape:pagecheckerboard="0"
     inkscape:deskcolor="#d1d1d1" />
  <g
     id="g12"
     transform="translate(-2,-2)">
    <path
       d="m 17,23 c -3.3137,0 -6,-2.6863 -6,-6 0,-3.3137 2.6863,-6 6,-6 3.3137,0 6,2.6863 6,6 0,3.3137 -2.6863,6 -6,6 z"
       class="ccustom"
       fill="#51a3ee"
       id="path10" />
    <path
       d="m 5.37623,19.0496 c -1.73875,0.3066 -2.93057,1.9862 -2.26312,3.6208 0.93184,2.282 2.41847,4.3152 4.34578,5.904 2.75591,2.2717 6.23191,3.4856 9.80291,3.4233 3.571,-0.0623 7.0026,-1.3968 9.6776,-3.7634 1.8706,-1.655 3.2854,-3.7389 4.1371,-6.052 0.61,-1.6569 -0.6398,-3.2939 -2.3882,-3.5396 -1.7483,-0.2457 -3.3181,1.0269 -4.1817,2.5669 -0.4681,0.8347 -1.0758,1.592 -1.8038,2.2361 -1.5348,1.3579 -3.5037,2.1235 -5.5525,2.1593 C 15.1014,25.6407 13.107,24.9443 11.5258,23.6408 10.7757,23.0225 10.142,22.2869 9.64502,21.469 8.72823,19.9601 7.11498,18.743 5.37623,19.0496 Z"
       class="ccustom"
       fill="#51a3ee"
       id="path11" />
    <path
       d="M 31.884,18.8745 C 31.9606,18.2604 32,17.6348 32,17 32,8.71573 25.2843,2 17,2 8.71573,2 2,8.71573 2,17 c 0,0.8147 0.06495,1.6142 0.18996,2.3937 0.68898,-0.9432 1.7643,-1.6165 2.9258,-1.8213 1.25669,-0.2216 2.39882,0.0832 3.36451,0.6529 C 8.42322,17.8251 8.3937,17.416 8.3937,17 c 0,-4.7531 3.8532,-8.6063 8.6063,-8.6063 4.7531,0 8.6063,3.8532 8.6063,8.6063 0,0.3134 -0.0168,0.6229 -0.0494,0.9276 0.9453,-0.6033 2.0763,-0.948 3.3402,-0.7703 1.1676,0.1641 2.2654,0.7991 2.9869,1.7172 z"
       class="ccompli1"
       fill="#0e4f8b"
       id="path12" />
  </g>
</svg>
